<svg width="32" height="33" viewBox="0 0 32 33" fill="none" xmlns="http://www.w3.org/2000/svg"><path fill-rule="evenodd" clip-rule="evenodd" d="M6.62442 21.5938L5 27.5L11.0711 25.9149C12.7437 26.8234 14.632 27.3016 16.5481 27.3026C22.86 27.3026 27.9971 22.1899 28 15.9061C28.001 12.8605 26.8108 9.997 24.6491 7.84267C22.4864 5.68833 19.6112 4.50096 16.5481 4.5C10.2363 4.5 5.09918 9.61271 5.09629 15.8955C5.09533 17.9052 5.62204 19.865 6.62442 21.5938ZM16.5443 25.3773C14.5068 25.3763 12.9661 24.8052 11.3523 23.8516L7.7491 24.7917L8.71104 21.2957C7.65666 19.6254 7.02885 18.0288 7.02981 15.8965C7.03173 10.6736 11.3022 6.42433 16.552 6.42433C21.8152 6.42625 26.0684 10.6697 26.0665 15.9042C26.0636 21.128 21.7902 25.3773 16.5443 25.3773ZM12.6668 16.9579C13.1961 16.9579 13.6252 16.5289 13.6252 15.9996C13.6252 15.4703 13.1961 15.0413 12.6668 15.0413C12.1376 15.0413 11.7085 15.4703 11.7085 15.9996C11.7085 16.5289 12.1376 16.9579 12.6668 16.9579ZM16.5003 16.9579C17.0296 16.9579 17.4587 16.5289 17.4587 15.9996C17.4587 15.4703 17.0296 15.0413 16.5003 15.0413C15.9711 15.0413 15.542 15.4703 15.542 15.9996C15.542 16.5289 15.9711 16.9579 16.5003 16.9579ZM21.2917 15.9996C21.2917 16.5289 20.8626 16.9579 20.3333 16.9579C19.8041 16.9579 19.375 16.5289 19.375 15.9996C19.375 15.4703 19.8041 15.0413 20.3333 15.0413C20.8626 15.0413 21.2917 15.4703 21.2917 15.9996Z" fill="#1B1B1B"/></svg>