<svg class="close" width="67" height="67" viewBox="0 0 67 67" fill="none" xmlns="http://www.w3.org/2000/svg"><path fill-rule="evenodd" clip-rule="evenodd" d="M45.4 62.0162C41.7 63.3165 37.7 64.1167 33.5 64.1167C15 64.1167 0 49.713 0 32.0084C0 14.3037 15 0 33.5 0C52 0 67 14.3037 67 32.0084C67 39.8104 64.1 46.9123 59.3 52.5137C59.1 56.3147 59.1 62.7164 61.3 66.2173C62.9 69.018 49 63.5166 45.4 62.0162Z" fill="#1B1B1B"/><path fill-rule="evenodd" clip-rule="evenodd" d="M33.5 33.5001L24 43.0001L23.2929 42.293L32.7929 32.793L24 24.0001L24.7071 23.293L33.5 32.0859L42.2929 23.293L43 24.0001L34.2071 32.793L43.7071 42.293L43 43.0001L33.5 33.5001Z" fill="white"/></svg>