<svg id="eDya45WL8BN1" xmlns="http://www.w3.org/2000/svg" xmlns:xlink="http://www.w3.org/1999/xlink" viewBox="0 0 67 67" shape-rendering="geometricPrecision" text-rendering="geometricPrecision" width="67" height="67"><style>#eDya45WL8BN3_to {animation: eDya45WL8BN3_to__to 7500ms linear 3 normal forwards}@keyframes eDya45WL8BN3_to__to { 0% {transform: translate(33px,32.35px)} 33.333333% {transform: translate(33px,32.35px)} 43.333333% {transform: translate(-13.16373px,32.35px)} 90% {transform: translate(-13.16373px,32.35px)} 100% {transform: translate(-13.16373px,32.35px)}} #eDya45WL8BN3 {animation: eDya45WL8BN3_c_o 7500ms linear 3 normal forwards}@keyframes eDya45WL8BN3_c_o { 0% {opacity: 1} 33.333333% {opacity: 1} 43.333333% {opacity: 0} 90% {opacity: 0} 100% {opacity: 0}} #eDya45WL8BN4_to {animation: eDya45WL8BN4_to__to 7500ms linear 3 normal forwards}@keyframes eDya45WL8BN4_to__to { 0% {transform: translate(83px,32.35px)} 43.333333% {transform: translate(83.025975px,32.35px)} 90% {transform: translate(82.900101px,32.35px)} 100% {transform: translate(32.83627px,32.35px)}} #eDya45WL8BN4 {animation: eDya45WL8BN4_c_o 7500ms linear 3 normal forwards}@keyframes eDya45WL8BN4_c_o { 0% {opacity: 0} 90% {opacity: 0} 100% {opacity: 1}} #eDya45WL8BN5_to {animation: eDya45WL8BN5_to__to 7500ms linear 3 normal forwards}@keyframes eDya45WL8BN5_to__to { 0% {transform: translate(79.5px,33px)} 33.333333% {transform: translate(78.956905px,33px)} 43.333333% {transform: translate(36px,33px)} 90% {transform: translate(36px,33px)} 100% {transform: translate(-8.206825px,33px)}} #eDya45WL8BN5 {animation: eDya45WL8BN5_c_o 7500ms linear 3 normal forwards}@keyframes eDya45WL8BN5_c_o { 0% {opacity: 0} 33.333333% {opacity: 0} 43.333333% {opacity: 1} 90% {opacity: 1} 100% {opacity: 0}}</style><path d="M45.4,62.05963c-3.7,1.30125-7.7,2.10202-11.9,2.10202C15,64.16165,0,49.7478,0,32.030777C0,14.313753,15,0,33.5,0s33.5,14.313753,33.5,32.030777c0,7.807502-2.9,14.91433-7.7,20.519716-.2,3.803655-.2,10.20981,2,13.713176c1.6,2.802693-12.3-2.702596-15.9-4.204039Z" clip-rule="evenodd" fill="#1b1b1b" fill-rule="evenodd"/><g id="eDya45WL8BN3_to" transform="translate(33,32.35)"><path id="eDya45WL8BN3" d="M36.4,22.2002h-.2c-1,0-1.9.2-2.7.4.6.3,1.1.7,1.5,1.1.6-.2,1.3-.3,2-.3.0132,0,.0404-.0018.0804-.0043.2627-.0169,1.0782-.0693,2.1196.1043c1.2.2,2.6.7,3.8,1.7-1.2-1.8-3.7-3-6.6-3Zm1.5999,10.0996c0,0,0-.4-.1-1c0-.2-.1-.3-.1-.3h-.1-5.5-.2v1.1c.1,0,.2,0,.4.1.0899,0,.1798.0202.2787.0425.1213.0272.2561.0575.4213.0575.1171,0,.2.0343.2686.0627.0485.0201.0899.0373.1314.0373.1675.0419.3175.0662.4499.0877h.0001c.1837.0298.3337.0542.45.1123.3.1.5.2.7.5.2.2.3.4.3.7v.8h-.0001c-.1.5-.2,1-.2999,1.3-.9,3-2.9,4.7-5.5,4.7-3.7,0-6.4-3.7-6.4-8.4c0-4.6,3-8.4,6.7-8.4.0029,0,.0085-.0002.0167-.0007l.0153-.0008c.3603-.0199,3.4749-.1915,5.768,2.1015-1.2-2.2-3.7-3.6-6.4-3.6h-.2c-5,.1-9,4.5-9,10.1s4.1,10.1,9,10.1c4.8-.1,8.9-4.6,8.9-10.2Zm-7.4,7.5004c-1.6-1.9-2.7-4.5-2.7-7.3c0-3.1,1.3-5.8,3.1-7.8.7.1,1.7.3,2.7.8-1.6,1.6-2.7,4.1-2.7,6.8c0,2.4.7,4.6,1.9,6.1-.6.7-1.4,1.2-2.3,1.4Zm15.2002-8.2004c.1.6.1,1,.1,1c0,5.4-4.2,9.8-9.3,9.9-1.1,0-2.1-.2-3-.5.7-.4,1.3-.9,1.9-1.5.4.1.9.2,1.4.2c2.7,0,4.8-1.7,5.7-4.6.1-.2.2-.7.3-1.2v-.8c0-.3-.1-.5-.3-.7-.3279-.4099-.6558-.4838-1.2042-.6073-.1205-.0271-.2516-.0567-.3958-.0927-.1,0-.175-.025-.25-.05s-.15-.05-.25-.05c-.1652,0-.3-.0303-.4212-.0575-.099-.0223-.1889-.0425-.2788-.0425-.1-.1-.2-.1-.3-.1h-.1v-1.1h.3h5.8.1c.1,0,.2.1.2.3Z" transform="translate(-33,-32.35)" clip-rule="evenodd" fill="#fff" fill-rule="evenodd"/></g><g id="eDya45WL8BN4_to" transform="translate(83,32.35)"><path id="eDya45WL8BN4" d="M36.4,22.2002h-.2c-1,0-1.9.2-2.7.4.6.3,1.1.7,1.5,1.1.6-.2,1.3-.3,2-.3.0132,0,.0404-.0018.0804-.0043.2627-.0169,1.0782-.0693,2.1196.1043c1.2.2,2.6.7,3.8,1.7-1.2-1.8-3.7-3-6.6-3Zm1.5999,10.0996c0,0,0-.4-.1-1c0-.2-.1-.3-.1-.3h-.1-5.5-.2v1.1c.1,0,.2,0,.4.1.0899,0,.1798.0202.2787.0425.1213.0272.2561.0575.4213.0575.1171,0,.2.0343.2686.0627.0485.0201.0899.0373.1314.0373.1675.0419.3175.0662.4499.0877h.0001c.1837.0298.3337.0542.45.1123.3.1.5.2.7.5.2.2.3.4.3.7v.8h-.0001c-.1.5-.2,1-.2999,1.3-.9,3-2.9,4.7-5.5,4.7-3.7,0-6.4-3.7-6.4-8.4c0-4.6,3-8.4,6.7-8.4.0029,0,.0085-.0002.0167-.0007l.0153-.0008c.3603-.0199,3.4749-.1915,5.768,2.1015-1.2-2.2-3.7-3.6-6.4-3.6h-.2c-5,.1-9,4.5-9,10.1s4.1,10.1,9,10.1c4.8-.1,8.9-4.6,8.9-10.2Zm-7.4,7.5004c-1.6-1.9-2.7-4.5-2.7-7.3c0-3.1,1.3-5.8,3.1-7.8.7.1,1.7.3,2.7.8-1.6,1.6-2.7,4.1-2.7,6.8c0,2.4.7,4.6,1.9,6.1-.6.7-1.4,1.2-2.3,1.4Zm15.2002-8.2004c.1.6.1,1,.1,1c0,5.4-4.2,9.8-9.3,9.9-1.1,0-2.1-.2-3-.5.7-.4,1.3-.9,1.9-1.5.4.1.9.2,1.4.2c2.7,0,4.8-1.7,5.7-4.6.1-.2.2-.7.3-1.2v-.8c0-.3-.1-.5-.3-.7-.3279-.4099-.6558-.4838-1.2042-.6073-.1205-.0271-.2516-.0567-.3958-.0927-.1,0-.175-.025-.25-.05s-.15-.05-.25-.05c-.1652,0-.3-.0303-.4212-.0575-.099-.0223-.1889-.0425-.2788-.0425-.1-.1-.2-.1-.3-.1h-.1v-1.1h.3h5.8.1c.1,0,.2.1.2.3Z" transform="translate(-33,-32.35)" opacity="0" clip-rule="evenodd" fill="#fff" fill-rule="evenodd"/></g><g id="eDya45WL8BN5_to" transform="translate(79.5,33)"><path id="eDya45WL8BN5" d="M22,33c0,1.656857-1.343143,3-3,3s-3-1.343143-3-3s1.343143-3,3-3s3,1.343143,3,3Zm12,0c0,1.656857-1.343143,3-3,3s-3-1.343143-3-3s1.343143-3,3-3s3,1.343143,3,3Zm9,3c1.656857,0,3-1.343143,3-3s-1.343143-3-3-3-3,1.343143-3,3s1.343143,3,3,3Z" transform="translate(-33.5,-33.5)" opacity="0" clip-rule="evenodd" fill="#fff" fill-rule="evenodd"/></g></svg>