<svg width="32" height="33" viewBox="0 0 32 33" fill="none" xmlns="http://www.w3.org/2000/svg"><g clip-path="url(#clip0_13_347)"><path fill-rule="evenodd" clip-rule="evenodd" d="M4.2001 9.59995C4.2001 8.49995 5.1001 7.69995 6.2001 7.69995H21.0001C22.1001 7.69995 23.0001 8.59995 23.0001 9.59995V13.3L26.0001 11.6C27.3001 10.9 28.9001 11.8 28.9001 13.3V20.7C28.9001 22.2 27.3001 23.1 26.0001 22.4L23.0001 20.7V23.7C23.0001 24.8 22.1001 25.6 21.0001 25.6H6.1001C5.0001 25.6 4.1001 24.7 4.1001 23.7V9.59995H4.2001ZM23.0001 18.7C23.4001 18.9 26.8001 20.9 26.8001 20.9C27.0001 21 27.2001 20.9 27.2001 20.7V13.2C27.2001 13 27.0001 12.9 26.8001 13C26.8001 13 23.4001 15 23.1001 15.1C23.1001 15.1 22.8001 15.2 22.4001 15.2C22.0001 15.2 21.5001 15.2 21.4001 15.2C21.2001 15.2 21.2001 15.1 21.2001 14.8C21.2001 14.6 21.2001 14.2 21.2001 14.2V9.59995C21.2001 9.49995 21.1001 9.29995 20.9001 9.29995H6.1001C6.0001 9.29995 5.9001 9.49995 5.9001 9.59995V23.5C5.9001 23.6 6.0001 23.7999 6.2001 23.7999H21.0001C21.1001 23.7999 21.3001 23.7 21.3001 23.5V19.5C21.3001 19.5 21.3001 19.2 21.3001 18.9C21.3001 18.6 21.4001 18.5 21.7001 18.5C22.0001 18.5 22.7001 18.5 22.7001 18.5C22.7001 18.5 22.9001 18.6 23.0001 18.7Z" fill="#1B1B1B"/><path fill-rule="evenodd" clip-rule="evenodd" d="M11.2002 14.5999C11.2002 13.4999 12.4002 12.8999 13.3002 13.3999L16.8002 15.3999C17.7002 15.8999 17.7002 17.2999 16.8002 17.7999L13.3002 19.7999C12.4002 20.2999 11.2002 19.6999 11.2002 18.5999V14.5999V14.5999ZM13.1002 15.3999V17.6999L15.1002 16.4999L13.1002 15.3999Z" fill="#1B1B1B"/></g><defs><clipPath id="clip0_13_347"><rect width="25" height="18" fill="white" transform="translate(4 7.5)"/></clipPath></defs></svg>